<mxfile host="app.diagrams.net" modified="2024-01-12T23:22:15.323Z" agent="Mozilla/5.0 (Windows NT 10.0; Win64; x64) AppleWebKit/537.36 (KHTML, like Gecko) Chrome/120.0.0.0 Safari/537.36" etag="I2E5NuRBHYad_57GMoQn" version="22.1.18" type="device">
  <diagram name="Page-1" id="lzesmqUz3pgV1eIBgdJk">
    <mxGraphModel dx="1408" dy="1212" grid="1" gridSize="10" guides="1" tooltips="1" connect="1" arrows="1" fold="1" page="1" pageScale="1" pageWidth="827" pageHeight="1169" math="0" shadow="0">
      <root>
        <mxCell id="0" />
        <mxCell id="1" parent="0" />
        <mxCell id="gnWlZXCHxh81-A2tqFq6-3" style="edgeStyle=orthogonalEdgeStyle;rounded=0;orthogonalLoop=1;jettySize=auto;html=1;exitX=0.5;exitY=1;exitDx=0;exitDy=0;entryX=0.5;entryY=0;entryDx=0;entryDy=0;" edge="1" parent="1" target="gnWlZXCHxh81-A2tqFq6-2">
          <mxGeometry relative="1" as="geometry">
            <mxPoint x="140" y="80" as="sourcePoint" />
          </mxGeometry>
        </mxCell>
        <mxCell id="gnWlZXCHxh81-A2tqFq6-25" style="edgeStyle=orthogonalEdgeStyle;rounded=0;orthogonalLoop=1;jettySize=auto;html=1;exitX=0.5;exitY=1;exitDx=0;exitDy=0;entryX=0.5;entryY=0;entryDx=0;entryDy=0;" edge="1" parent="1" source="gnWlZXCHxh81-A2tqFq6-2" target="gnWlZXCHxh81-A2tqFq6-23">
          <mxGeometry relative="1" as="geometry" />
        </mxCell>
        <mxCell id="gnWlZXCHxh81-A2tqFq6-2" value="Create new neural network instance" style="rounded=0;whiteSpace=wrap;html=1;" vertex="1" parent="1">
          <mxGeometry x="80" y="120" width="120" height="40" as="geometry" />
        </mxCell>
        <mxCell id="gnWlZXCHxh81-A2tqFq6-4" value="Run&lt;br style=&quot;border-color: var(--border-color);&quot;&gt;Learning Mode" style="rounded=1;whiteSpace=wrap;html=1;" vertex="1" parent="1">
          <mxGeometry x="80" y="40" width="120" height="40" as="geometry" />
        </mxCell>
        <mxCell id="gnWlZXCHxh81-A2tqFq6-8" style="edgeStyle=orthogonalEdgeStyle;rounded=0;orthogonalLoop=1;jettySize=auto;html=1;exitX=0.5;exitY=1;exitDx=0;exitDy=0;entryX=0.5;entryY=0;entryDx=0;entryDy=0;" edge="1" parent="1" source="gnWlZXCHxh81-A2tqFq6-5" target="gnWlZXCHxh81-A2tqFq6-7">
          <mxGeometry relative="1" as="geometry" />
        </mxCell>
        <mxCell id="gnWlZXCHxh81-A2tqFq6-5" value="Take input&lt;br&gt;on drawing grid" style="shape=parallelogram;perimeter=parallelogramPerimeter;whiteSpace=wrap;html=1;fixedSize=1;" vertex="1" parent="1">
          <mxGeometry x="80" y="280" width="120" height="40" as="geometry" />
        </mxCell>
        <mxCell id="gnWlZXCHxh81-A2tqFq6-10" style="edgeStyle=orthogonalEdgeStyle;rounded=0;orthogonalLoop=1;jettySize=auto;html=1;exitX=1;exitY=0.5;exitDx=0;exitDy=0;entryX=0;entryY=0.5;entryDx=0;entryDy=0;" edge="1" parent="1" source="gnWlZXCHxh81-A2tqFq6-7" target="gnWlZXCHxh81-A2tqFq6-9">
          <mxGeometry relative="1" as="geometry" />
        </mxCell>
        <mxCell id="gnWlZXCHxh81-A2tqFq6-11" value="Yes" style="edgeLabel;html=1;align=center;verticalAlign=middle;resizable=0;points=[];" vertex="1" connectable="0" parent="gnWlZXCHxh81-A2tqFq6-10">
          <mxGeometry y="1" relative="1" as="geometry">
            <mxPoint y="1" as="offset" />
          </mxGeometry>
        </mxCell>
        <mxCell id="gnWlZXCHxh81-A2tqFq6-31" style="edgeStyle=orthogonalEdgeStyle;rounded=0;orthogonalLoop=1;jettySize=auto;html=1;exitX=0.5;exitY=1;exitDx=0;exitDy=0;entryX=0.5;entryY=0;entryDx=0;entryDy=0;" edge="1" parent="1" source="gnWlZXCHxh81-A2tqFq6-7" target="gnWlZXCHxh81-A2tqFq6-30">
          <mxGeometry relative="1" as="geometry" />
        </mxCell>
        <mxCell id="gnWlZXCHxh81-A2tqFq6-32" value="No" style="edgeLabel;html=1;align=center;verticalAlign=middle;resizable=0;points=[];" vertex="1" connectable="0" parent="gnWlZXCHxh81-A2tqFq6-31">
          <mxGeometry x="-0.05" y="-1" relative="1" as="geometry">
            <mxPoint x="1" as="offset" />
          </mxGeometry>
        </mxCell>
        <mxCell id="gnWlZXCHxh81-A2tqFq6-7" value="Add sample to network?" style="rhombus;whiteSpace=wrap;html=1;" vertex="1" parent="1">
          <mxGeometry x="80" y="360" width="120" height="120" as="geometry" />
        </mxCell>
        <mxCell id="gnWlZXCHxh81-A2tqFq6-14" style="edgeStyle=orthogonalEdgeStyle;rounded=0;orthogonalLoop=1;jettySize=auto;html=1;exitX=1;exitY=0.5;exitDx=0;exitDy=0;entryX=0;entryY=0.5;entryDx=0;entryDy=0;" edge="1" parent="1" source="gnWlZXCHxh81-A2tqFq6-9" target="gnWlZXCHxh81-A2tqFq6-13">
          <mxGeometry relative="1" as="geometry" />
        </mxCell>
        <mxCell id="gnWlZXCHxh81-A2tqFq6-15" value="No" style="edgeLabel;html=1;align=center;verticalAlign=middle;resizable=0;points=[];" vertex="1" connectable="0" parent="gnWlZXCHxh81-A2tqFq6-14">
          <mxGeometry x="-0.0417" relative="1" as="geometry">
            <mxPoint as="offset" />
          </mxGeometry>
        </mxCell>
        <mxCell id="gnWlZXCHxh81-A2tqFq6-20" style="edgeStyle=orthogonalEdgeStyle;rounded=0;orthogonalLoop=1;jettySize=auto;html=1;exitX=0.5;exitY=0;exitDx=0;exitDy=0;entryX=0.5;entryY=1;entryDx=0;entryDy=0;" edge="1" parent="1" source="gnWlZXCHxh81-A2tqFq6-9" target="gnWlZXCHxh81-A2tqFq6-19">
          <mxGeometry relative="1" as="geometry" />
        </mxCell>
        <mxCell id="gnWlZXCHxh81-A2tqFq6-21" value="Yes" style="edgeLabel;html=1;align=center;verticalAlign=middle;resizable=0;points=[];" vertex="1" connectable="0" parent="gnWlZXCHxh81-A2tqFq6-20">
          <mxGeometry x="-0.0333" relative="1" as="geometry">
            <mxPoint as="offset" />
          </mxGeometry>
        </mxCell>
        <mxCell id="gnWlZXCHxh81-A2tqFq6-9" value="Is sample &lt;br&gt;empty?" style="rhombus;whiteSpace=wrap;html=1;" vertex="1" parent="1">
          <mxGeometry x="240" y="360" width="120" height="120" as="geometry" />
        </mxCell>
        <mxCell id="gnWlZXCHxh81-A2tqFq6-17" style="edgeStyle=orthogonalEdgeStyle;rounded=0;orthogonalLoop=1;jettySize=auto;html=1;exitX=0.5;exitY=0;exitDx=0;exitDy=0;entryX=0.5;entryY=1;entryDx=0;entryDy=0;" edge="1" parent="1" source="gnWlZXCHxh81-A2tqFq6-13" target="gnWlZXCHxh81-A2tqFq6-16">
          <mxGeometry relative="1" as="geometry" />
        </mxCell>
        <mxCell id="gnWlZXCHxh81-A2tqFq6-13" value="Add Sample" style="rounded=0;whiteSpace=wrap;html=1;" vertex="1" parent="1">
          <mxGeometry x="400" y="400" width="120" height="40" as="geometry" />
        </mxCell>
        <mxCell id="gnWlZXCHxh81-A2tqFq6-27" style="edgeStyle=orthogonalEdgeStyle;rounded=0;orthogonalLoop=1;jettySize=auto;html=1;exitX=0.5;exitY=0;exitDx=0;exitDy=0;entryX=1;entryY=0.5;entryDx=0;entryDy=0;" edge="1" parent="1" source="gnWlZXCHxh81-A2tqFq6-16" target="gnWlZXCHxh81-A2tqFq6-23">
          <mxGeometry relative="1" as="geometry" />
        </mxCell>
        <mxCell id="gnWlZXCHxh81-A2tqFq6-16" value="Display new sample count" style="rounded=0;whiteSpace=wrap;html=1;" vertex="1" parent="1">
          <mxGeometry x="400" y="280" width="120" height="40" as="geometry" />
        </mxCell>
        <mxCell id="gnWlZXCHxh81-A2tqFq6-29" style="edgeStyle=orthogonalEdgeStyle;rounded=0;orthogonalLoop=1;jettySize=auto;html=1;exitX=0.5;exitY=0;exitDx=0;exitDy=0;entryX=1;entryY=0.5;entryDx=0;entryDy=0;" edge="1" parent="1" source="gnWlZXCHxh81-A2tqFq6-19" target="gnWlZXCHxh81-A2tqFq6-23">
          <mxGeometry relative="1" as="geometry" />
        </mxCell>
        <mxCell id="gnWlZXCHxh81-A2tqFq6-19" value="Don&#39;t add sample" style="rounded=0;whiteSpace=wrap;html=1;" vertex="1" parent="1">
          <mxGeometry x="240" y="280" width="120" height="40" as="geometry" />
        </mxCell>
        <mxCell id="gnWlZXCHxh81-A2tqFq6-26" style="edgeStyle=orthogonalEdgeStyle;rounded=0;orthogonalLoop=1;jettySize=auto;html=1;exitX=0.5;exitY=1;exitDx=0;exitDy=0;entryX=0.5;entryY=0;entryDx=0;entryDy=0;" edge="1" parent="1" source="gnWlZXCHxh81-A2tqFq6-23" target="gnWlZXCHxh81-A2tqFq6-5">
          <mxGeometry relative="1" as="geometry" />
        </mxCell>
        <mxCell id="gnWlZXCHxh81-A2tqFq6-23" value="Clear drawing grid" style="rounded=0;whiteSpace=wrap;html=1;" vertex="1" parent="1">
          <mxGeometry x="80" y="200" width="120" height="40" as="geometry" />
        </mxCell>
        <mxCell id="gnWlZXCHxh81-A2tqFq6-33" style="edgeStyle=orthogonalEdgeStyle;rounded=0;orthogonalLoop=1;jettySize=auto;html=1;exitX=0;exitY=0.5;exitDx=0;exitDy=0;entryX=0;entryY=0.5;entryDx=0;entryDy=0;" edge="1" parent="1" source="gnWlZXCHxh81-A2tqFq6-30" target="gnWlZXCHxh81-A2tqFq6-23">
          <mxGeometry relative="1" as="geometry">
            <mxPoint y="580.0588235294117" as="targetPoint" />
          </mxGeometry>
        </mxCell>
        <mxCell id="gnWlZXCHxh81-A2tqFq6-34" value="Yes" style="edgeLabel;html=1;align=center;verticalAlign=middle;resizable=0;points=[];" vertex="1" connectable="0" parent="gnWlZXCHxh81-A2tqFq6-33">
          <mxGeometry x="0.0075" relative="1" as="geometry">
            <mxPoint y="-1" as="offset" />
          </mxGeometry>
        </mxCell>
        <mxCell id="gnWlZXCHxh81-A2tqFq6-36" style="edgeStyle=orthogonalEdgeStyle;rounded=0;orthogonalLoop=1;jettySize=auto;html=1;exitX=0.5;exitY=1;exitDx=0;exitDy=0;entryX=0.5;entryY=0;entryDx=0;entryDy=0;" edge="1" parent="1" source="gnWlZXCHxh81-A2tqFq6-30" target="gnWlZXCHxh81-A2tqFq6-35">
          <mxGeometry relative="1" as="geometry" />
        </mxCell>
        <mxCell id="gnWlZXCHxh81-A2tqFq6-37" value="No" style="edgeLabel;html=1;align=center;verticalAlign=middle;resizable=0;points=[];" vertex="1" connectable="0" parent="gnWlZXCHxh81-A2tqFq6-36">
          <mxGeometry relative="1" as="geometry">
            <mxPoint as="offset" />
          </mxGeometry>
        </mxCell>
        <mxCell id="gnWlZXCHxh81-A2tqFq6-30" value="Clear drawing grid?" style="rhombus;whiteSpace=wrap;html=1;" vertex="1" parent="1">
          <mxGeometry x="80" y="520" width="120" height="120" as="geometry" />
        </mxCell>
        <mxCell id="gnWlZXCHxh81-A2tqFq6-39" style="edgeStyle=orthogonalEdgeStyle;rounded=0;orthogonalLoop=1;jettySize=auto;html=1;exitX=1;exitY=0.5;exitDx=0;exitDy=0;entryX=0;entryY=0.5;entryDx=0;entryDy=0;" edge="1" parent="1" source="gnWlZXCHxh81-A2tqFq6-35" target="gnWlZXCHxh81-A2tqFq6-38">
          <mxGeometry relative="1" as="geometry" />
        </mxCell>
        <mxCell id="gnWlZXCHxh81-A2tqFq6-40" value="Yes" style="edgeLabel;html=1;align=center;verticalAlign=middle;resizable=0;points=[];" vertex="1" connectable="0" parent="gnWlZXCHxh81-A2tqFq6-39">
          <mxGeometry x="0.05" y="1" relative="1" as="geometry">
            <mxPoint x="-1" y="1" as="offset" />
          </mxGeometry>
        </mxCell>
        <mxCell id="gnWlZXCHxh81-A2tqFq6-52" style="edgeStyle=orthogonalEdgeStyle;rounded=0;orthogonalLoop=1;jettySize=auto;html=1;exitX=0.5;exitY=1;exitDx=0;exitDy=0;entryX=0.5;entryY=0;entryDx=0;entryDy=0;jumpStyle=none;shadow=0;" edge="1" parent="1" source="gnWlZXCHxh81-A2tqFq6-35" target="gnWlZXCHxh81-A2tqFq6-49">
          <mxGeometry relative="1" as="geometry">
            <Array as="points">
              <mxPoint x="130" y="800" />
              <mxPoint x="130" y="840" />
              <mxPoint x="140" y="840" />
            </Array>
          </mxGeometry>
        </mxCell>
        <mxCell id="gnWlZXCHxh81-A2tqFq6-35" value="Load preinstalled samples?" style="rhombus;whiteSpace=wrap;html=1;" vertex="1" parent="1">
          <mxGeometry x="80" y="680" width="120" height="120" as="geometry" />
        </mxCell>
        <mxCell id="gnWlZXCHxh81-A2tqFq6-42" value="Yes" style="edgeStyle=orthogonalEdgeStyle;rounded=0;orthogonalLoop=1;jettySize=auto;html=1;exitX=1;exitY=0.5;exitDx=0;exitDy=0;entryX=0;entryY=0.5;entryDx=0;entryDy=0;" edge="1" parent="1" source="gnWlZXCHxh81-A2tqFq6-38" target="gnWlZXCHxh81-A2tqFq6-41">
          <mxGeometry relative="1" as="geometry">
            <mxPoint as="offset" />
          </mxGeometry>
        </mxCell>
        <mxCell id="gnWlZXCHxh81-A2tqFq6-46" style="edgeStyle=orthogonalEdgeStyle;rounded=0;orthogonalLoop=1;jettySize=auto;html=1;exitX=0.5;exitY=1;exitDx=0;exitDy=0;entryX=0;entryY=0.5;entryDx=0;entryDy=0;" edge="1" parent="1" source="gnWlZXCHxh81-A2tqFq6-38" target="gnWlZXCHxh81-A2tqFq6-23">
          <mxGeometry relative="1" as="geometry">
            <mxPoint x="299.95238095238096" y="880" as="targetPoint" />
            <Array as="points">
              <mxPoint x="300" y="820" />
              <mxPoint x="40" y="820" />
              <mxPoint x="40" y="220" />
            </Array>
          </mxGeometry>
        </mxCell>
        <mxCell id="gnWlZXCHxh81-A2tqFq6-47" value="No" style="edgeLabel;html=1;align=center;verticalAlign=middle;resizable=0;points=[];" vertex="1" connectable="0" parent="gnWlZXCHxh81-A2tqFq6-46">
          <mxGeometry x="-0.0361" y="-1" relative="1" as="geometry">
            <mxPoint x="219" y="164" as="offset" />
          </mxGeometry>
        </mxCell>
        <mxCell id="gnWlZXCHxh81-A2tqFq6-38" value="Is there another preinstalled&lt;br&gt;sample?" style="rhombus;whiteSpace=wrap;html=1;" vertex="1" parent="1">
          <mxGeometry x="240" y="680" width="120" height="120" as="geometry" />
        </mxCell>
        <mxCell id="gnWlZXCHxh81-A2tqFq6-44" style="edgeStyle=orthogonalEdgeStyle;rounded=0;orthogonalLoop=1;jettySize=auto;html=1;exitX=0.5;exitY=0;exitDx=0;exitDy=0;entryX=0.5;entryY=1;entryDx=0;entryDy=0;" edge="1" parent="1" source="gnWlZXCHxh81-A2tqFq6-41" target="gnWlZXCHxh81-A2tqFq6-13">
          <mxGeometry relative="1" as="geometry" />
        </mxCell>
        <mxCell id="gnWlZXCHxh81-A2tqFq6-41" value="Get next preinstalled sample" style="rounded=0;whiteSpace=wrap;html=1;" vertex="1" parent="1">
          <mxGeometry x="400" y="720" width="120" height="40" as="geometry" />
        </mxCell>
        <mxCell id="gnWlZXCHxh81-A2tqFq6-55" style="edgeStyle=orthogonalEdgeStyle;rounded=0;orthogonalLoop=1;jettySize=auto;html=1;exitX=0.5;exitY=1;exitDx=0;exitDy=0;entryX=0.5;entryY=0;entryDx=0;entryDy=0;" edge="1" parent="1" source="gnWlZXCHxh81-A2tqFq6-49" target="gnWlZXCHxh81-A2tqFq6-54">
          <mxGeometry relative="1" as="geometry" />
        </mxCell>
        <mxCell id="gnWlZXCHxh81-A2tqFq6-56" value="No" style="edgeLabel;html=1;align=center;verticalAlign=middle;resizable=0;points=[];" vertex="1" connectable="0" parent="gnWlZXCHxh81-A2tqFq6-55">
          <mxGeometry y="-1" relative="1" as="geometry">
            <mxPoint x="1" as="offset" />
          </mxGeometry>
        </mxCell>
        <mxCell id="gnWlZXCHxh81-A2tqFq6-57" style="edgeStyle=orthogonalEdgeStyle;rounded=0;orthogonalLoop=1;jettySize=auto;html=1;exitX=1;exitY=0.5;exitDx=0;exitDy=0;entryX=0;entryY=0.5;entryDx=0;entryDy=0;" edge="1" parent="1" source="gnWlZXCHxh81-A2tqFq6-49" target="gnWlZXCHxh81-A2tqFq6-53">
          <mxGeometry relative="1" as="geometry" />
        </mxCell>
        <mxCell id="gnWlZXCHxh81-A2tqFq6-58" value="Yes" style="edgeLabel;html=1;align=center;verticalAlign=middle;resizable=0;points=[];" vertex="1" connectable="0" parent="gnWlZXCHxh81-A2tqFq6-57">
          <mxGeometry x="-0.0643" relative="1" as="geometry">
            <mxPoint as="offset" />
          </mxGeometry>
        </mxCell>
        <mxCell id="gnWlZXCHxh81-A2tqFq6-49" value="Train model?" style="rhombus;whiteSpace=wrap;html=1;" vertex="1" parent="1">
          <mxGeometry x="80" y="880" width="120" height="120" as="geometry" />
        </mxCell>
        <mxCell id="gnWlZXCHxh81-A2tqFq6-61" style="edgeStyle=orthogonalEdgeStyle;rounded=0;orthogonalLoop=1;jettySize=auto;html=1;exitX=1;exitY=0.5;exitDx=0;exitDy=0;entryX=0;entryY=0.5;entryDx=0;entryDy=0;" edge="1" parent="1" source="gnWlZXCHxh81-A2tqFq6-53" target="gnWlZXCHxh81-A2tqFq6-59">
          <mxGeometry relative="1" as="geometry" />
        </mxCell>
        <mxCell id="gnWlZXCHxh81-A2tqFq6-53" value="Use all compiled samples to train" style="rounded=0;whiteSpace=wrap;html=1;" vertex="1" parent="1">
          <mxGeometry x="240" y="920" width="120" height="40" as="geometry" />
        </mxCell>
        <mxCell id="gnWlZXCHxh81-A2tqFq6-54" value="Must be exit" style="rounded=1;whiteSpace=wrap;html=1;" vertex="1" parent="1">
          <mxGeometry x="80" y="1040" width="120" height="40" as="geometry" />
        </mxCell>
        <mxCell id="gnWlZXCHxh81-A2tqFq6-64" style="edgeStyle=orthogonalEdgeStyle;rounded=0;orthogonalLoop=1;jettySize=auto;html=1;exitX=1;exitY=0.5;exitDx=0;exitDy=0;entryX=0;entryY=0.5;entryDx=0;entryDy=0;" edge="1" parent="1" source="gnWlZXCHxh81-A2tqFq6-59" target="gnWlZXCHxh81-A2tqFq6-60">
          <mxGeometry relative="1" as="geometry" />
        </mxCell>
        <mxCell id="gnWlZXCHxh81-A2tqFq6-65" value="Yes" style="edgeLabel;html=1;align=center;verticalAlign=middle;resizable=0;points=[];" vertex="1" connectable="0" parent="gnWlZXCHxh81-A2tqFq6-64">
          <mxGeometry x="-0.0328" y="1" relative="1" as="geometry">
            <mxPoint y="1" as="offset" />
          </mxGeometry>
        </mxCell>
        <mxCell id="gnWlZXCHxh81-A2tqFq6-66" style="edgeStyle=orthogonalEdgeStyle;rounded=0;orthogonalLoop=1;jettySize=auto;html=1;exitX=0.5;exitY=1;exitDx=0;exitDy=0;entryX=1;entryY=0.5;entryDx=0;entryDy=0;" edge="1" parent="1" source="gnWlZXCHxh81-A2tqFq6-59" target="gnWlZXCHxh81-A2tqFq6-54">
          <mxGeometry relative="1" as="geometry" />
        </mxCell>
        <mxCell id="gnWlZXCHxh81-A2tqFq6-67" value="No" style="edgeLabel;html=1;align=center;verticalAlign=middle;resizable=0;points=[];" vertex="1" connectable="0" parent="gnWlZXCHxh81-A2tqFq6-66">
          <mxGeometry x="-0.8158" relative="1" as="geometry">
            <mxPoint y="-10" as="offset" />
          </mxGeometry>
        </mxCell>
        <mxCell id="gnWlZXCHxh81-A2tqFq6-59" value="Save Model?" style="rhombus;whiteSpace=wrap;html=1;" vertex="1" parent="1">
          <mxGeometry x="400" y="880" width="120" height="120" as="geometry" />
        </mxCell>
        <mxCell id="gnWlZXCHxh81-A2tqFq6-68" style="edgeStyle=orthogonalEdgeStyle;rounded=0;orthogonalLoop=1;jettySize=auto;html=1;exitX=0.5;exitY=1;exitDx=0;exitDy=0;entryX=1;entryY=0.5;entryDx=0;entryDy=0;" edge="1" parent="1" source="gnWlZXCHxh81-A2tqFq6-60" target="gnWlZXCHxh81-A2tqFq6-54">
          <mxGeometry relative="1" as="geometry" />
        </mxCell>
        <mxCell id="gnWlZXCHxh81-A2tqFq6-60" value="Save model as JSON file" style="rounded=0;whiteSpace=wrap;html=1;" vertex="1" parent="1">
          <mxGeometry x="560" y="920" width="120" height="40" as="geometry" />
        </mxCell>
      </root>
    </mxGraphModel>
  </diagram>
</mxfile>
